<?xml version="1.0" standalone="no"?>
<!DOCTYPE svg PUBLIC "-//W3C//DTD SVG 20010904//EN"
 "http://www.w3.org/TR/2001/REC-SVG-20010904/DTD/svg10.dtd">
<svg version="1.0" xmlns="http://www.w3.org/2000/svg"
 width="936.000000pt" height="1280.000000pt" viewBox="0 0 936.000000 1280.000000"
 preserveAspectRatio="xMidYMid meet">
<g transform="translate(0.000000,1280.000000) scale(0.100000,-0.100000)"
fill="#000000" stroke="none">
<path d="M1310 9240 c0 -1958 3 -3560 6 -3560 4 0 185 63 403 139 801 281
1167 376 1696 441 765 93 1337 4 1822 -284 376 -223 597 -518 677 -906 53
-260 42 -591 -29 -859 -134 -503 -539 -899 -1092 -1066 -409 -124 -896 -120
-1290 11 -60 19 -180 71 -269 114 -347 170 -634 400 -939 753 -55 64 -106 116
-113 116 -10 1 -1520 -1446 -2074 -1987 l-108 -105 0 -73 0 -73 177 -178 c259
-260 500 -467 778 -665 828 -592 1829 -952 2855 -1028 80 -6 192 -15 250 -20
135 -13 307 -13 484 0 78 6 204 15 281 20 726 53 1408 232 2001 527 150 75
179 91 349 192 289 171 593 406 862 665 581 559 966 1219 1163 1991 77 299
117 570 146 991 17 240 17 261 0 495 -39 536 -103 868 -243 1264 -224 636
-619 1206 -1163 1680 -669 583 -1434 956 -2246 1095 -306 53 -666 76 -905 58
-86 -6 -164 -8 -173 -5 -15 6 -16 39 -14 364 l3 358 1638 3 c900 1 1637 4
1637 7 0 3 193 692 430 1532 237 839 430 1532 430 1540 0 11 -625 13 -3715 13
l-3715 0 0 -3560z"/>
</g>
</svg>
